<svg viewBox="0 0 400 300" xmlns="http://www.w3.org/2000/svg">
  <defs>
    <linearGradient id="seraGrad" x1="0%" y1="0%" x2="100%" y2="100%">
      <stop offset="0%" style="stop-color:#8b5cf6;stop-opacity:1" />
      <stop offset="100%" style="stop-color:#7c3aed;stop-opacity:1" />
    </linearGradient>
    <linearGradient id="laravelGrad" x1="0%" y1="0%" x2="100%" y2="100%">
      <stop offset="0%" style="stop-color:#ff2d20;stop-opacity:1" />
      <stop offset="100%" style="stop-color:#e53e3e;stop-opacity:1" />
    </linearGradient>
  </defs>
  
  <!-- Background -->
  <rect width="400" height="300" fill="#faf5ff"/>
  
  <!-- Management dashboard -->
  <rect x="50" y="70" width="300" height="160" rx="8" fill="#ffffff" stroke="#e5e7eb" stroke-width="2"/>
  
  <!-- Header -->
  <rect x="60" y="80" width="280" height="25" rx="4" fill="url(#seraGrad)" opacity="0.1"/>
  <text x="200" y="95" text-anchor="middle" fill="#7c3aed" font-family="Arial" font-size="10" font-weight="bold">GoofySeRA Dashboard</text>
  
  <!-- Navigation -->
  <rect x="60" y="115" width="40" height="80" rx="4" fill="#f3f4f6"/>
  <rect x="65" y="125" width="30" height="8" rx="1" fill="#8b5cf6" opacity="0.8"/>
  <rect x="65" y="140" width="25" height="6" rx="1" fill="#6b7280" opacity="0.6"/>
  <rect x="65" y="150" width="28" height="6" rx="1" fill="#6b7280" opacity="0.6"/>
  <rect x="65" y="160" width="22" height="6" rx="1" fill="#6b7280" opacity="0.6"/>
  <rect x="65" y="170" width="30" height="6" rx="1" fill="#6b7280" opacity="0.6"/>
  <rect x="65" y="180" width="26" height="6" rx="1" fill="#6b7280" opacity="0.6"/>
  
  <!-- Main content area -->
  <rect x="110" y="115" width="180" height="50" rx="4" fill="#f9fafb"/>
  <!-- Data table -->
  <rect x="115" y="125" width="170" height="8" rx="1" fill="#e5e7eb"/>
  <rect x="115" y="138" width="150" height="6" rx="1" fill="#f3f4f6"/>
  <rect x="115" y="148" width="160" height="6" rx="1" fill="#f3f4f6"/>
  <rect x="115" y="158" width="140" height="6" rx="1" fill="#f3f4f6"/>
  
  <!-- Charts and widgets -->
  <rect x="300" y="115" width="40" height="50" rx="4" fill="#f3f4f6"/>
  <!-- Bar chart -->
  <rect x="305" y="145" width="4" height="15" fill="#8b5cf6"/>
  <rect x="312" y="140" width="4" height="20" fill="#8b5cf6"/>
  <rect x="319" y="150" width="4" height="10" fill="#8b5cf6"/>
  <rect x="326" y="135" width="4" height="25" fill="#8b5cf6"/>
  <rect x="333" y="148" width="4" height="12" fill="#8b5cf6"/>
  
  <!-- Form section -->
  <rect x="110" y="175" width="230" height="45" rx="4" fill="#f9fafb"/>
  <rect x="120" y="185" width="100" height="8" rx="1" fill="#e5e7eb"/>
  <rect x="120" y="200" width="80" height="8" rx="1" fill="#e5e7eb"/>
  <rect x="240" y="185" width="80" height="8" rx="1" fill="#e5e7eb"/>
  <rect x="240" y="200" width="60" height="8" rx="1" fill="#e5e7eb"/>
  <rect x="280" y="210" width="40" height="8" rx="2" fill="#8b5cf6"/>
  
  <!-- Tech stack -->
  <circle cx="80" cy="250" r="18" fill="#61dafb" opacity="0.9"/>
  <text x="80" y="255" text-anchor="middle" fill="white" font-family="Arial" font-size="7" font-weight="bold">React</text>
  
  <circle cx="130" cy="250" r="18" fill="url(#laravelGrad)" opacity="0.9"/>
  <text x="130" y="255" text-anchor="middle" fill="white" font-family="Arial" font-size="7" font-weight="bold">Laravel</text>
  
  <circle cx="180" cy="250" r="18" fill="#336791" opacity="0.9"/>
  <text x="180" y="255" text-anchor="middle" fill="white" font-family="Arial" font-size="6" font-weight="bold">PostgreSQL</text>
  
  <circle cx="230" cy="250" r="18" fill="#ff6b35" opacity="0.9"/>
  <text x="230" y="255" text-anchor="middle" fill="white" font-family="Arial" font-size="7" font-weight="bold">Redis</text>
  
  <circle cx="280" cy="250" r="18" fill="#47c550" opacity="0.9"/>
  <text x="280" y="255" text-anchor="middle" fill="white" font-family="Arial" font-size="7" font-weight="bold">API</text>
  
  <circle cx="330" cy="250" r="18" fill="#8b5cf6" opacity="0.9"/>
  <text x="330" y="255" text-anchor="middle" fill="white" font-family="Arial" font-size="6" font-weight="bold">Admin</text>
  
  <!-- Title -->
  <text x="200" y="35" text-anchor="middle" fill="#1f2937" font-family="Arial" font-size="18" font-weight="bold">GoofySeRA</text>
  <text x="200" y="50" text-anchor="middle" fill="#7c3aed" font-family="Arial" font-size="10">Management Application</text>
</svg>