<svg viewBox="0 0 400 300" xmlns="http://www.w3.org/2000/svg">
  <defs>
    <linearGradient id="phpGrad" x1="0%" y1="0%" x2="100%" y2="100%">
      <stop offset="0%" style="stop-color:#777bb4;stop-opacity:1" />
      <stop offset="100%" style="stop-color:#4f5b93;stop-opacity:1" />
    </linearGradient>
  </defs>
  
  <!-- Background -->
  <rect width="400" height="300" fill="#f8f9fa"/>
  
  <!-- PHP logo -->
  <ellipse cx="100" cy="100" rx="40" ry="25" fill="url(#phpGrad)" opacity="0.9"/>
  <text x="100" y="105" text-anchor="middle" fill="white" font-family="Arial" font-size="14" font-weight="bold">PHP</text>
  
  <!-- Code editor mockup -->
  <rect x="180" y="60" width="180" height="120" rx="8" fill="#1e1e1e" opacity="0.9"/>
  <rect x="180" y="60" width="180" height="20" rx="8" fill="#333333"/>
  <circle cx="195" cy="70" r="3" fill="#ff5f56"/>
  <circle cx="205" cy="70" r="3" fill="#ffbd2e"/>
  <circle cx="215" cy="70" r="3" fill="#27ca3f"/>
  
  <!-- Code content -->
  <text x="190" y="100" fill="#569cd6" font-family="Courier" font-size="8">&lt;?php</text>
  <text x="190" y="115" fill="#dcdcaa" font-family="Courier" font-size="8">class</text>
  <text x="215" y="115" fill="#4ec9b0" font-family="Courier" font-size="8">Exercise</text>
  <text x="190" y="130" fill="#dcdcaa" font-family="Courier" font-size="8">function</text>
  <text x="225" y="130" fill="#dcdcaa" font-family="Courier" font-size="8">solve()</text>
  <text x="190" y="145" fill="#ce9178" font-family="Courier" font-size="8">  // TP Logic</text>
  <text x="190" y="160" fill="#569cd6" font-family="Courier" font-size="8">?&gt;</text>
  
  <!-- Exercise elements -->
  <rect x="50" y="180" width="70" height="30" rx="4" fill="#dc3545" opacity="0.8"/>
  <text x="85" y="198" text-anchor="middle" fill="white" font-family="Arial" font-size="8" font-weight="bold">Variables</text>
  
  <rect x="130" y="180" width="70" height="30" rx="4" fill="#28a745" opacity="0.8"/>
  <text x="165" y="198" text-anchor="middle" fill="white" font-family="Arial" font-size="8" font-weight="bold">Functions</text>
  
  <rect x="210" y="180" width="70" height="30" rx="4" fill="#007bff" opacity="0.8"/>
  <text x="245" y="198" text-anchor="middle" fill="white" font-family="Arial" font-size="8" font-weight="bold">Arrays</text>
  
  <rect x="290" y="180" width="70" height="30" rx="4" fill="#6f42c1" opacity="0.8"/>
  <text x="325" y="198" text-anchor="middle" fill="white" font-family="Arial" font-size="8" font-weight="bold">Classes</text>
  
  <!-- Learning objectives -->
  <rect x="80" y="230" width="80" height="20" rx="2" fill="#ffc107" opacity="0.8"/>
  <text x="120" y="243" text-anchor="middle" fill="#212529" font-family="Arial" font-size="7" font-weight="bold">POO Basics</text>
  
  <rect x="170" y="230" width="80" height="20" rx="2" fill="#17a2b8" opacity="0.8"/>
  <text x="210" y="243" text-anchor="middle" fill="white" font-family="Arial" font-size="7" font-weight="bold">Web Forms</text>
  
  <rect x="260" y="230" width="80" height="20" rx="2" fill="#6c757d" opacity="0.8"/>
  <text x="300" y="243" text-anchor="middle" fill="white" font-family="Arial" font-size="7" font-weight="bold">File Handling</text>
  
  <!-- Progress indicators -->
  <circle cx="50" cy="140" r="8" fill="#28a745"/>
  <text x="50" y="145" text-anchor="middle" fill="white" font-family="Arial" font-size="6" font-weight="bold">✓</text>
  
  <circle cx="370" cy="140" r="8" fill="#28a745"/>
  <text x="370" y="145" text-anchor="middle" fill="white" font-family="Arial" font-size="6" font-weight="bold">✓</text>
  
  <!-- Title -->
  <text x="200" y="30" text-anchor="middle" fill="#1f2937" font-family="Arial" font-size="18" font-weight="bold">PHP TP1 Projects</text>
  <text x="200" y="45" text-anchor="middle" fill="#777bb4" font-family="Arial" font-size="10">Travaux Pratiques PHP Fundamentals</text>
</svg>